<svg id="visual" viewBox="0 0 1920 1080" width="1920" height="1080" xmlns="http://www.w3.org/2000/svg" xmlns:xlink="http://www.w3.org/1999/xlink" version="1.1"><rect x="0" y="0" width="1920" height="1080" fill="#001220"></rect><path d="M0 688L45.7 687.8C91.3 687.7 182.7 687.3 274.2 690.7C365.7 694 457.3 701 548.8 675.3C640.3 649.7 731.7 591.3 823 565.7C914.3 540 1005.7 547 1097 578.5C1188.3 610 1279.7 666 1371.2 685C1462.7 704 1554.3 686 1645.8 686C1737.3 686 1828.7 704 1874.3 713L1920 722L1920 1081L1874.3 1081C1828.7 1081 1737.3 1081 1645.8 1081C1554.3 1081 1462.7 1081 1371.2 1081C1279.7 1081 1188.3 1081 1097 1081C1005.7 1081 914.3 1081 823 1081C731.7 1081 640.3 1081 548.8 1081C457.3 1081 365.7 1081 274.2 1081C182.7 1081 91.3 1081 45.7 1081L0 1081Z" fill="#c62368"></path><path d="M0 793L45.7 767.3C91.3 741.7 182.7 690.3 274.2 685.3C365.7 680.3 457.3 721.7 548.8 750C640.3 778.3 731.7 793.7 823 769.5C914.3 745.3 1005.7 681.7 1097 671.7C1188.3 661.7 1279.7 705.3 1371.2 717.2C1462.7 729 1554.3 709 1645.8 715.3C1737.3 721.7 1828.7 754.3 1874.3 770.7L1920 787L1920 1081L1874.3 1081C1828.7 1081 1737.3 1081 1645.8 1081C1554.3 1081 1462.7 1081 1371.2 1081C1279.7 1081 1188.3 1081 1097 1081C1005.7 1081 914.3 1081 823 1081C731.7 1081 640.3 1081 548.8 1081C457.3 1081 365.7 1081 274.2 1081C182.7 1081 91.3 1081 45.7 1081L0 1081Z" fill="#d53867"></path><path d="M0 730L45.7 728.7C91.3 727.3 182.7 724.7 274.2 746.7C365.7 768.7 457.3 815.3 548.8 823.3C640.3 831.3 731.7 800.7 823 790.3C914.3 780 1005.7 790 1097 780C1188.3 770 1279.7 740 1371.2 752.2C1462.7 764.3 1554.3 818.7 1645.8 841.8C1737.3 865 1828.7 857 1874.3 853L1920 849L1920 1081L1874.3 1081C1828.7 1081 1737.3 1081 1645.8 1081C1554.3 1081 1462.7 1081 1371.2 1081C1279.7 1081 1188.3 1081 1097 1081C1005.7 1081 914.3 1081 823 1081C731.7 1081 640.3 1081 548.8 1081C457.3 1081 365.7 1081 274.2 1081C182.7 1081 91.3 1081 45.7 1081L0 1081Z" fill="#e34c67"></path><path d="M0 912L45.7 905.3C91.3 898.7 182.7 885.3 274.2 885.3C365.7 885.3 457.3 898.7 548.8 899.2C640.3 899.7 731.7 887.3 823 889.3C914.3 891.3 1005.7 907.7 1097 919.5C1188.3 931.3 1279.7 938.7 1371.2 931C1462.7 923.3 1554.3 900.7 1645.8 884.7C1737.3 868.7 1828.7 859.3 1874.3 854.7L1920 850L1920 1081L1874.3 1081C1828.7 1081 1737.3 1081 1645.8 1081C1554.3 1081 1462.7 1081 1371.2 1081C1279.7 1081 1188.3 1081 1097 1081C1005.7 1081 914.3 1081 823 1081C731.7 1081 640.3 1081 548.8 1081C457.3 1081 365.7 1081 274.2 1081C182.7 1081 91.3 1081 45.7 1081L0 1081Z" fill="#ef5f67"></path><path d="M0 908L45.7 928.2C91.3 948.3 182.7 988.7 274.2 1007.5C365.7 1026.3 457.3 1023.7 548.8 1013.8C640.3 1004 731.7 987 823 988.8C914.3 990.7 1005.7 1011.3 1097 1019.8C1188.3 1028.3 1279.7 1024.7 1371.2 1006.3C1462.7 988 1554.3 955 1645.8 939.2C1737.3 923.3 1828.7 924.7 1874.3 925.3L1920 926L1920 1081L1874.3 1081C1828.7 1081 1737.3 1081 1645.8 1081C1554.3 1081 1462.7 1081 1371.2 1081C1279.7 1081 1188.3 1081 1097 1081C1005.7 1081 914.3 1081 823 1081C731.7 1081 640.3 1081 548.8 1081C457.3 1081 365.7 1081 274.2 1081C182.7 1081 91.3 1081 45.7 1081L0 1081Z" fill="#fa7268"></path></svg>