<svg id="visual" viewBox="0 0 1900 1080" width="1900" height="1080" xmlns="http://www.w3.org/2000/svg" xmlns:xlink="http://www.w3.org/1999/xlink" version="1.1"><rect x="0" y="0" width="1900" height="1080" fill="#002233"></rect><path d="M0 786L45.2 793.5C90.3 801 180.7 816 271.2 801.7C361.7 787.3 452.3 743.7 542.8 748.3C633.3 753 723.7 806 814.2 811.3C904.7 816.7 995.3 774.3 1085.8 757.5C1176.3 740.7 1266.7 749.3 1357.2 768C1447.7 786.7 1538.3 815.3 1628.8 840.2C1719.3 865 1809.7 886 1854.8 896.5L1900 907L1900 1081L1854.8 1081C1809.7 1081 1719.3 1081 1628.8 1081C1538.3 1081 1447.7 1081 1357.2 1081C1266.7 1081 1176.3 1081 1085.8 1081C995.3 1081 904.7 1081 814.2 1081C723.7 1081 633.3 1081 542.8 1081C452.3 1081 361.7 1081 271.2 1081C180.7 1081 90.3 1081 45.2 1081L0 1081Z" fill="#0066FF" stroke-linecap="round" stroke-linejoin="miter"></path></svg>